<?xml version="1.0" encoding="utf-8"?>
<!-- Generator: Adobe Illustrator 24.1.2, SVG Export Plug-In . SVG Version: 6.00 Build 0)  -->
<svg version="1.1" id="Layer_1" xmlns="http://www.w3.org/2000/svg" xmlns:xlink="http://www.w3.org/1999/xlink" x="0px" y="0px"
	 viewBox="0 0 106 44" style="enable-background:new 0 0 106 44;" xml:space="preserve" width='50%' height='50%'>
<style type="text/css">
	.st0{fill:#344150;}
	.st1{font-family:'BalooBhai-Regular';}
	.st2{font-size:36.4815px;}
	.st3{enable-background:new    ;}
	.st4{fill-rule:evenodd;clip-rule:evenodd;fill:#4DAAA7;}
	.st5{fill-rule:evenodd;clip-rule:evenodd;fill:#DF6756;}
	.st6{fill-rule:evenodd;clip-rule:evenodd;fill:#FFD55A;}
</style>
<g id="_x3C_Type_x3E__1_">
</g>
<g>
	<g id="IRIS">
		<text transform="matrix(0.9994 0 0 1 29.2959 32.2402)" class="st0 st1 st2">IRIS</text>
	</g>
	<g id="Rounded_Rectangle_1_5_" class="st3">
		<g id="Rounded_Rectangle_1">
			<g>
				<path class="st4" d="M21.95,17.85H10.5c-0.4,0-0.73,0.33-0.73,0.73v4.96c0,0.4,0.33,0.73,0.73,0.73h11.45
					c0.4,0,0.73-0.33,0.73-0.73v-4.96C22.68,18.18,22.35,17.85,21.95,17.85z"/>
			</g>
		</g>
	</g>
	<g id="Rounded_Rectangle_1_4_" class="st3">
		<g id="Rounded_Rectangle_1_1_">
			<g>
				<path class="st5" d="M21.95,26.09H10.5c-0.4,0-0.73,0.33-0.73,0.73v4.96c0,0.4,0.33,0.73,0.73,0.73h11.45
					c0.4,0,0.73-0.33,0.73-0.73v-4.96C22.68,26.42,22.35,26.09,21.95,26.09z"/>
			</g>
		</g>
	</g>
	<g id="Rounded_Rectangle_1_3_" class="st3">
		<g id="Rounded_Rectangle_1_2_">
			<g>
				<path class="st6" d="M21.95,9.6H10.5c-0.4,0-0.73,0.33-0.73,0.73v4.96c0,0.4,0.33,0.73,0.73,0.73h11.45
					c0.4,0,0.73-0.33,0.73-0.73v-4.96C22.68,9.93,22.35,9.6,21.95,9.6z"/>
			</g>
		</g>
	</g>
	<g id="_x3C_Type_x3E_">
	</g>
</g>
</svg>
